# xmcd
#
# Track frame offsets: 
#        150
#        15884
#        41164
#        58241
#        80366
#        101456
#        119724
#        145457
#        158943
#        170703
#        193542
#        206846
#
# Disc length: 3020 seconds
#
# Revision: 0
# Processed by: cddbd v1.5.2PL0 Copyright (c) Steve Scherf et al.
# Submitted via: ExactAudioCopy v1.3
#
DISCID=ac0bca0c
DTITLE=Bruce Katz - Solo Ride
DYEAR=2019
DGENRE=Piano Blues
TTITLE0=Down At The Barrelhouse
TTITLE1=Crescent Crawl
TTITLE2=It Hurts Me Too
TTITLE3=Praise House
TTITLE4=Red Sneakers
TTITLE5=Dreams Of Yesterday
TTITLE6=Midnight Plans
TTITLE7=Easy Living
TTITLE8=Going Places
TTITLE9=The Way To Your Heart
TTITLE10=Watermelon Thump
TTITLE11=Redemption
EXTD=
EXTT0=
EXTT1=
EXTT2=
EXTT3=
EXTT4=
EXTT5=
EXTT6=
EXTT7=
EXTT8=
EXTT9=
EXTT10=
EXTT11=
PLAYORDER=
